<?xml version="1.0" encoding="UTF-8"?>
<!DOCTYPE svg PUBLIC "-//W3C//DTD SVG 1.1//EN" "http://www.w3.org/Graphics/SVG/1.1/DTD/svg11.dtd">
<!-- Creator: CorelDRAW 2017 -->
<svg xmlns="http://www.w3.org/2000/svg" xml:space="preserve" width="100%" height="100%" version="1.1" style="shape-rendering:geometricPrecision; text-rendering:geometricPrecision; image-rendering:optimizeQuality; fill-rule:evenodd; clip-rule:evenodd"
viewBox="0 0 7006 5872"
 xmlns:xlink="http://www.w3.org/1999/xlink">
 <defs>
  <style type="text/css">
   <![CDATA[
    .fil0 {fill:#464893}
    .fil3 {fill:#CDBD28}
    .fil1 {fill:#E6C947}
    .fil4 {fill:#FBFBFB}
    .fil2 {fill:#464893;fill-rule:nonzero}
   ]]>
  </style>
 </defs>
 <g id="Capa_x0020_1">
  <metadata id="CorelCorpID_0Corel-Layer"/>
  <path class="fil0" d="M1029 2233l-420 0 0 -552 420 0c78,0 139,42 181,82 160,149 64,470 -181,470zm-1012 -854l0 1773c0,312 119,315 342,315 315,0 250,-280 250,-644 460,0 637,42 1000,-248 157,-125 261,-397 261,-619 0,-500 -406,-867 -893,-867l-644 0c-227,0 -315,61 -315,289z"/>
  <path class="fil0" d="M6165 2233l-420 0 0 -552 420 0c333,0 351,552 0,552zm-1012 -854l0 1773c0,312 119,315 342,315 315,0 250,-280 250,-644 460,0 637,42 1000,-248 157,-125 261,-397 261,-619 0,-221 -103,-494 -261,-619 -164,-131 -341,-248 -633,-248l-644 0c-227,0 -315,61 -315,289z"/>
  <path class="fil1" d="M3122 3342c-80,-33 -146,-86 -172,-166l-5 -14 14 3c164,34 239,-135 312,-303 80,-181 159,-361 351,-300 69,22 124,81 169,152 44,70 79,152 109,224 11,26 21,53 31,79 59,153 110,282 262,275l28 -1 -23 17c-3,2 -5,3 -8,3 -1,0 -1,-1 -1,0l-1 3c-15,7 -31,14 -46,21 -8,3 -16,7 -24,11 -6,3 -12,5 -19,9 -52,23 -80,12 -142,-13 -36,-14 -84,-34 -155,-53 -253,-70 -275,-33 -335,70l-15 26 -4 0c-98,10 -224,1 -327,-41zm1397 -352c-59,113 -97,187 -215,249l-13 7 1 -15c7,-130 -89,-225 -174,-310 -27,-27 -53,-52 -74,-78 -235,-278 -234,-429 -121,-524 89,-75 249,-113 413,-153 62,-15 125,-30 185,-47 118,-34 131,-47 160,-78 10,-11 22,-23 39,-39l12 -11 2 16c2,20 5,40 8,60 19,133 33,231 -66,319 -23,21 -46,39 -67,56 -122,101 -183,150 -60,360 39,67 25,92 -4,143 -6,10 -13,22 -20,35l-5 10zm-852 -1519c-2,-94 -35,-153 -155,-151l-22 0c-78,99 -69,140 -50,232 11,54 26,125 30,234 2,48 -1,95 -8,139 -7,41 -18,80 -34,115 -86,182 -224,167 -376,95 -61,-29 -125,-67 -188,-105 -148,-89 -295,-178 -406,-143l-16 5 5 -16c71,-214 134,-220 183,-224 13,-1 24,-2 34,-7 44,-24 34,-51 22,-84 -26,-71 -60,-163 270,-294 229,-91 268,-72 356,-30 40,19 91,44 177,65l13 3 -2 2c20,-7 40,-14 60,-21 11,-3 19,-4 24,-5 13,-2 15,-2 58,-46 14,-14 25,-28 36,-40 20,-24 38,-46 64,-61 35,-21 90,-29 147,-28 70,1 144,15 188,31 37,14 79,40 118,70 47,35 89,75 111,103 46,57 20,94 -9,137 -24,35 -51,74 -36,132 62,44 124,16 185,-11 45,-20 89,-39 133,-31l2 0 1 1c74,48 96,170 115,275 4,21 7,41 12,61l4 18 -16 -9c-23,-12 -41,-24 -56,-34 -83,-52 -92,-58 -363,126 -13,9 -27,19 -43,30 -100,71 -249,176 -380,184 -125,8 -187,-47 -213,-130 -26,-81 -18,-188 -7,-288 4,-38 10,-75 15,-111 10,-71 20,-137 19,-190zm-597 1371c-67,86 -134,171 -152,254l-3 13 -11 -8c-30,-23 -42,-43 -54,-63 -11,-19 -22,-37 -49,-54 -22,-14 -47,-27 -71,-39 -26,-13 -51,-25 -73,-40 -37,-25 -79,-61 -118,-100 -42,-41 -81,-86 -108,-124 -60,-82 -88,-166 -95,-256 -7,-89 7,-185 30,-291 4,-17 7,-35 10,-53 9,-50 18,-97 38,-118l16 -17 -2 23c-12,157 128,188 269,220 17,4 33,7 50,11l34 8c144,34 287,68 375,155 162,160 37,320 -87,478z"/>
  <rect class="fil0" y="5530" width="7006" height="342"/>
  <path class="fil2" d="M546 4573c48,11 86,34 114,71 28,37 42,78 42,125 0,69 -24,124 -72,163 -48,39 -115,59 -201,59l-403 0 0 -815 391 0c83,0 148,18 196,55 47,37 71,89 71,156 0,48 -13,88 -38,120 -25,32 -58,54 -100,65zm-294 -73l114 0c57,0 86,-24 86,-70 0,-49 -29,-73 -86,-73l-114 0 0 143zm132 309c57,0 86,-24 86,-72 0,-25 -8,-44 -23,-57 -15,-13 -36,-20 -64,-20l-131 0 0 148 132 0zm681 -673l0 855 -227 0 0 -855 227 0zm468 863c-65,0 -123,-13 -174,-40 -51,-27 -91,-65 -121,-116 -29,-50 -44,-109 -44,-177 0,-67 15,-126 44,-176 30,-50 70,-89 121,-116 51,-27 109,-40 174,-40 65,0 123,13 174,40 51,27 92,65 121,116 30,50 44,109 44,176 0,67 -15,126 -44,176 -30,50 -70,89 -122,116 -52,27 -110,40 -174,40zm0 -196c32,0 58,-12 79,-35 21,-24 32,-57 32,-101 0,-44 -11,-77 -32,-101 -21,-23 -47,-35 -78,-35 -31,0 -57,12 -77,35 -21,23 -31,57 -31,101 0,45 10,79 30,102 20,23 46,35 77,35zm433 -136c0,-67 14,-126 42,-176 28,-50 66,-89 116,-116 50,-27 107,-40 170,-40 82,0 152,23 208,68 56,45 92,108 109,189l-240 0c-14,-42 -41,-64 -81,-64 -29,0 -51,12 -68,35 -17,23 -25,58 -25,103 0,45 8,80 25,104 17,24 39,36 68,36 41,0 68,-21 81,-64l240 0c-16,80 -52,143 -109,188 -56,45 -126,68 -208,68 -64,0 -121,-13 -170,-40 -50,-27 -88,-65 -116,-116 -28,-50 -42,-109 -42,-177zm1181 325l-179 -266 0 266 -227 0 0 -855 227 0 0 461 179 -254 272 0 -255 326 260 322 -276 0zm342 -325c0,-67 14,-126 42,-176 28,-50 66,-89 116,-116 50,-27 107,-40 170,-40 82,0 152,23 208,68 56,45 92,108 109,189l-240 0c-14,-42 -41,-64 -81,-64 -29,0 -51,12 -68,35 -17,23 -25,58 -25,103 0,45 8,80 25,104 17,24 39,36 68,36 41,0 68,-21 81,-64l240 0c-16,80 -52,143 -109,188 -56,45 -126,68 -208,68 -64,0 -121,-13 -170,-40 -50,-27 -88,-65 -116,-116 -28,-50 -42,-109 -42,-177zm1202 -329c74,0 133,25 176,75 44,50 65,117 65,202l0 378 -227 0 0 -348c0,-37 -10,-66 -29,-87 -19,-21 -45,-32 -77,-32 -34,0 -60,11 -80,32 -19,21 -29,50 -29,87l0 348 -227 0 0 -855 227 0 0 299c20,-29 47,-53 81,-71 34,-18 74,-27 118,-27zm366 329c0,-67 12,-126 36,-176 24,-50 57,-89 99,-116 42,-27 89,-40 140,-40 45,0 83,9 116,27 32,18 57,42 75,72l0 -90 226 0 0 648 -226 0 0 -90c-18,30 -43,54 -76,72 -33,18 -71,27 -115,27 -52,0 -98,-13 -140,-40 -42,-27 -75,-66 -99,-116 -24,-50 -36,-109 -36,-176zm467 0c0,-42 -11,-74 -34,-98 -23,-24 -51,-36 -84,-36 -34,0 -62,12 -84,35 -22,24 -34,56 -34,99 0,42 11,75 34,99 22,24 50,36 84,36 33,0 61,-12 84,-36 23,-24 34,-57 34,-99zm507 -384c-40,0 -72,-11 -96,-33 -24,-22 -36,-50 -36,-83 0,-34 12,-62 36,-84 24,-22 56,-34 96,-34 39,0 71,11 95,34 24,22 36,50 36,84 0,33 -12,61 -36,83 -24,22 -56,33 -95,33zm112 60l0 648 -227 0 0 -648 227 0zm590 -6c75,0 134,25 178,75 44,50 66,117 66,202l0 378 -227 0 0 -348c0,-37 -10,-66 -29,-87 -19,-21 -45,-32 -77,-32 -34,0 -60,11 -80,32 -19,21 -29,50 -29,87l0 348 -227 0 0 -648 227 0 0 92c20,-29 47,-53 81,-71 34,-18 73,-27 117,-27z"/>
  <rect class="fil0" width="7006" height="342"/>
  <path class="fil3" d="M4700 1876l25 133c21,161 55,273 -55,371 -167,147 -275,175 -128,427 45,77 14,95 -24,170 -61,117 -97,192 -217,255 -47,43 -38,35 -106,69 -4,3 -9,1 -12,6l-42 19c-15,6 -27,13 -43,20 -77,35 -100,-14 -292,-67 -276,-77 -284,-28 -358,96 -173,18 -432,-25 -490,-201 -26,-24 -42,-34 -48,-79 -58,-44 -47,-80 -103,-118 -45,-30 -101,-50 -144,-79 -76,-51 -172,-150 -225,-222 -118,-162 -110,-330 -63,-540 14,-64 21,-141 46,-166l34 -91c90,-270 164,-200 213,-227 142,-77 -207,-180 291,-378 332,-132 257,-30 528,36l25 2 51 -18c43,-12 26,8 86,-53 39,-40 60,-77 98,-100 75,-45 250,-26 328,4 79,31 185,120 225,170 81,101 -83,135 -46,269 112,83 223,-57 324,-39 86,56 100,218 123,331zm-1281 -680c-176,0 -200,-255 -727,35 -43,24 -120,79 -149,114 -72,92 -27,96 -5,192 -99,8 -125,39 -167,109 -37,62 -69,129 -94,195 -79,208 -154,540 -28,760 25,44 83,117 121,155 55,56 85,79 149,127 36,27 39,29 79,53 226,134 158,252 328,368 143,97 297,139 492,139 78,0 117,-68 131,-131 287,0 445,118 512,118 37,0 306,-155 365,-213 73,-72 190,-264 213,-365 -229,-342 -27,-281 113,-465 112,-146 10,-578 -46,-746 -27,-80 -26,-87 -84,-140 -134,-123 -198,-70 -260,-55 18,-77 104,-118 -194,-318 -187,-125 -244,-129 -449,-129 -178,0 -198,197 -302,197z"/>
  <path class="fil4" d="M2455 1879l-34 91c-14,183 165,202 326,240 154,37 312,69 405,161 243,241 -189,487 -241,725 6,45 22,56 48,79 349,71 301,-718 662,-603 134,43 214,229 273,371 78,188 117,368 301,359 68,-34 59,-26 106,-69 10,-175 -159,-286 -250,-394 -490,-579 60,-592 472,-710 159,-46 130,-54 203,-119l-25 -133c-148,-80 -103,-128 -428,93 -95,65 -270,203 -419,213 -241,16 -234,-211 -211,-408 29,-252 101,-466 -130,-462l-25 -2c-132,166 -37,175 -26,477 3,91 -9,180 -42,250 -198,419 -684,-244 -965,-158z"/>
 </g>
</svg>
